<svg xmlns="http://www.w3.org/2000/svg" width="512" height="512" viewBox="0 0 512 512">
  <defs>
    <radialGradient id="bg" cx="50%" cy="38%" r="90%">
      <stop offset="0%" stop-color="#221856"/>
      <stop offset="60%" stop-color="#120b30"/>
      <stop offset="100%" stop-color="#0a0618"/>
    </radialGradient>
    <linearGradient id="fg" x1="0%" y1="100%" x2="100%" y2="0%">
      <stop offset="0%" stop-color="#46cdfc"/>
      <stop offset="100%" stop-color="#f5bcff"/>
    </linearGradient>
  </defs>
  <rect width="512" height="512" rx="112" fill="url(#bg)"/>
  <circle cx="256" cy="256" r="182" fill="none" stroke="#9db8e8" stroke-opacity="0.22" stroke-width="4" stroke-dasharray="3 14" stroke-linecap="round"/>
  <path d="M 256 88 C 279.52 208.95999999999998 303.04 232.48 424 256 C 303.04 279.52 279.52 303.04 256 424 C 232.48 303.04 208.95999999999998 279.52 88 256 C 208.95999999999998 232.48 232.48 208.95999999999998 256 88 Z" fill="url(#fg)"/>
  <path d="M 374 94 C 380.16 125.68 386.32 131.84 418 138 C 386.32 144.16 380.16 150.32 374 182 C 367.84 150.32 361.68 144.16 330 138 C 361.68 131.84 367.84 125.68 374 94 Z" fill="#f5dcff" opacity="0.95"/>
  <circle cx="134" cy="374" r="11" fill="#8fd9ff" opacity="0.9"/>
  <circle cx="168" cy="118" r="7" fill="#ffffff" opacity="0.75"/>
  <circle cx="388" cy="348" r="6" fill="#ffffff" opacity="0.6"/>
</svg>