<svg xmlns="http://www.w3.org/2000/svg" width="512" height="512" viewBox="0 0 512 512">
  <defs>
    <radialGradient id="bg" cx="50%" cy="34%" r="90%">
      <stop offset="0%" stop-color="#3a1a33"/>
      <stop offset="58%" stop-color="#1a0d17"/>
      <stop offset="100%" stop-color="#0a0508"/>
    </radialGradient>
    <linearGradient id="fg" x1="0%" y1="100%" x2="100%" y2="0%">
      <stop offset="0%" stop-color="#d8b76a"/>
      <stop offset="100%" stop-color="#d39bdf"/>
    </linearGradient>
  </defs>
  <rect width="512" height="512" rx="112" fill="url(#bg)"/>
  <circle cx="256" cy="256" r="184" fill="none" stroke="#e0c07f" stroke-opacity="0.28" stroke-width="4" stroke-dasharray="2 26.7" stroke-linecap="round"/>
  <path d="M 256 84 C 280 210 302 232 428 256 C 302 280 280 302 256 428 C 232 302 210 280 84 256 C 210 232 232 210 256 84 Z" fill="url(#fg)"/>
  <path d="M 378 92 C 384.5 125 391 131.5 424 138 C 391 144.5 384.5 151 378 184 C 371.5 151 365 144.5 332 138 C 365 131.5 371.5 125 378 92 Z" fill="#f0dcb0" opacity="0.95"/>
  <circle cx="132" cy="372" r="11" fill="#e6b7ef" opacity="0.9"/>
  <circle cx="164" cy="120" r="7" fill="#f5e9cf" opacity="0.8"/>
  <circle cx="392" cy="352" r="6" fill="#e6b7ef" opacity="0.65"/>
</svg>
